name E:\3-PhD\Data\MocapData\ElaboratedData\012\pre\dynamicElaborations\RunA1\RunA1.mot
datacolumns 37
datarows 11
range 2.7165 2.7215
endheader

time	    ground_force1_vx	    ground_force1_vy	    ground_force1_vz	    ground_force1_px	    ground_force1_py	    ground_force1_pz	    ground_force2_vx	    ground_force2_vy	    ground_force2_vz	    ground_force2_px	    ground_force2_py	    ground_force2_pz	    ground_force3_vx	    ground_force3_vy	    ground_force3_vz	    ground_force3_px	    ground_force3_py	    ground_force3_pz	    ground_force4_vx	    ground_force4_vy	    ground_force4_vz	    ground_force4_px	    ground_force4_py	    ground_force4_pz	    ground_torque1_x	    ground_torque1_y	    ground_torque1_z	    ground_torque2_x	    ground_torque2_y	    ground_torque2_z	    ground_torque3_x	    ground_torque3_y	    ground_torque3_z	    ground_torque4_x	    ground_torque4_y	    ground_torque4_z	
2.7165	        104.48548759	       1237.85794722	         55.06697643	         -1.83772878	          0.00000000	          0.26830071	        -82.53988924	        501.04609257	         -4.52026378	         -1.78767358	          0.00000000	          0.27194023	          0.00000000	          0.00000000	          0.00000000	          0.00000000	          0.00000000	          0.00000000	          0.00000000	          0.00000000	          0.00000000	          0.00000000	          0.00000000	          0.00000000	         -0.00000000	         -3.06747710	          0.00000000	         -0.00000000	         -0.39890885	          0.00000000	          0.00000000	          0.00000000	          0.00000000	          0.00000000	          0.00000000	          0.00000000	
2.717	        107.46002267	       1243.53251108	         53.43535076	         -1.83764033	          0.00000000	          0.26839846	        -82.35940880	        505.79857229	         -4.17306198	         -1.78761698	          0.00000000	          0.27206154	          0.00000000	          0.00000000	          0.00000000	          0.00000000	          0.00000000	          0.00000000	          0.00000000	          0.00000000	          0.00000000	          0.00000000	          0.00000000	          0.00000000	         -0.00000000	         -3.10308898	          0.00000000	         -0.00000000	         -0.43275875	          0.00000000	          0.00000000	          0.00000000	          0.00000000	          0.00000000	          0.00000000	          0.00000000	
2.7175	        110.43661740	       1248.96775451	         51.80663672	         -1.83754903	          0.00000000	          0.26849506	        -82.14840354	        510.50565811	         -3.83055018	         -1.78756075	          0.00000000	          0.27218069	          0.00000000	          0.00000000	          0.00000000	          0.00000000	          0.00000000	          0.00000000	          0.00000000	          0.00000000	          0.00000000	          0.00000000	          0.00000000	          0.00000000	         -0.00000000	         -3.13679585	          0.00000000	         -0.00000000	         -0.46664598	          0.00000000	          0.00000000	          0.00000000	          0.00000000	          0.00000000	          0.00000000	          0.00000000	
2.718	        113.41547405	       1254.16575368	         50.18275812	         -1.83745498	          0.00000000	          0.26859052	        -81.90617486	        515.16620547	         -3.49331783	         -1.78750489	          0.00000000	          0.27229768	          0.00000000	          0.00000000	          0.00000000	          0.00000000	          0.00000000	          0.00000000	          0.00000000	          0.00000000	          0.00000000	          0.00000000	          0.00000000	          0.00000000	         -0.00000000	         -3.16854382	          0.00000000	         -0.00000000	         -0.50053813	          0.00000000	          0.00000000	          0.00000000	          0.00000000	          0.00000000	          0.00000000	          0.00000000	
2.7185	        116.39679725	       1259.12873324	         48.56557321	         -1.83735825	          0.00000000	          0.26868484	        -81.63203754	        519.77910625	         -3.16195145	         -1.78744942	          0.00000000	          0.27241251	          0.00000000	          0.00000000	          0.00000000	          0.00000000	          0.00000000	          0.00000000	          0.00000000	          0.00000000	          0.00000000	          0.00000000	          0.00000000	          0.00000000	         -0.00000000	         -3.19828476	          0.00000000	         -0.00000000	         -0.53440258	          0.00000000	          0.00000000	          0.00000000	          0.00000000	          0.00000000	          0.00000000	          0.00000000	
2.719	        119.38078904	       1263.85905375	         46.95687394	         -1.83725895	          0.00000000	          0.26877802	        -81.32532288	        524.34329199	         -2.83703359	         -1.78739435	          0.00000000	          0.27252520	          0.00000000	          0.00000000	          0.00000000	          0.00000000	          0.00000000	          0.00000000	          0.00000000	          0.00000000	          0.00000000	          0.00000000	          0.00000000	          0.00000000	         -0.00000000	         -3.22597663	          0.00000000	         -0.00000000	         -0.56820690	          0.00000000	          0.00000000	          0.00000000	          0.00000000	          0.00000000	          0.00000000	          0.00000000	
2.7195	        122.36764035	       1268.35919954	         45.35838538	         -1.83715715	          0.00000000	          0.26887006	        -80.98538174	        528.85773532	         -2.51914101	         -1.78733968	          0.00000000	          0.27263575	          0.00000000	          0.00000000	          0.00000000	          0.00000000	          0.00000000	          0.00000000	          0.00000000	          0.00000000	          0.00000000	          0.00000000	          0.00000000	          0.00000000	         -0.00000000	         -3.25158308	          0.00000000	         -0.00000000	         -0.60191924	          0.00000000	          0.00000000	          0.00000000	          0.00000000	          0.00000000	          0.00000000	          0.00000000	
2.72	        125.35752379	       1272.63176258	         43.77176269	         -1.83705296	          0.00000000	          0.26896098	        -80.61158656	        533.32145156	         -2.20884345	         -1.78728544	          0.00000000	          0.27274417	          0.00000000	          0.00000000	          0.00000000	          0.00000000	          0.00000000	          0.00000000	          0.00000000	          0.00000000	          0.00000000	          0.00000000	          0.00000000	          0.00000000	         -0.00000000	         -3.27507280	          0.00000000	         -0.00000000	         -0.63550843	          0.00000000	          0.00000000	          0.00000000	          0.00000000	          0.00000000	          0.00000000	          0.00000000	
2.7205	        128.35059029	       1276.67942593	         42.19858711	         -1.83694648	          0.00000000	          0.26905076	        -80.20333258	        537.73350239	         -1.90670364	         -1.78723163	          0.00000000	          0.27285047	          0.00000000	          0.00000000	          0.00000000	          0.00000000	          0.00000000	          0.00000000	          0.00000000	          0.00000000	          0.00000000	          0.00000000	          0.00000000	          0.00000000	         -0.00000000	         -3.29641948	          0.00000000	         -0.00000000	         -0.66894376	          0.00000000	          0.00000000	          0.00000000	          0.00000000	          0.00000000	          0.00000000	          0.00000000	
2.721	        131.34696684	       1280.50495136	         40.64036435	         -1.83683780	          0.00000000	          0.26913942	        -79.76003968	        542.09299975	         -1.61327789	         -1.78717827	          0.00000000	          0.27295466	          0.00000000	          0.00000000	          0.00000000	          0.00000000	          0.00000000	          0.00000000	          0.00000000	          0.00000000	          0.00000000	          0.00000000	          0.00000000	          0.00000000	         -0.00000000	         -3.31560231	          0.00000000	         -0.00000000	         -0.70219476	          0.00000000	          0.00000000	          0.00000000	          0.00000000	          0.00000000	          0.00000000	          0.00000000	
2.7215	        134.34675244	       1284.11116869	         39.09852594	         -1.83672701	          0.00000000	          0.26922696	        -79.28115478	        546.39910662	         -1.32911547	         -1.78712536	          0.00000000	          0.27305676	          0.00000000	          0.00000000	          0.00000000	          0.00000000	          0.00000000	          0.00000000	          0.00000000	          0.00000000	          0.00000000	          0.00000000	          0.00000000	          0.00000000	         -0.00000000	         -3.33260617	          0.00000000	         -0.00000000	         -0.73523136	          0.00000000	          0.00000000	          0.00000000	          0.00000000	          0.00000000	          0.00000000	          0.00000000	
